<?xml version="1.0" encoding="utf-8"?>
<!-- Generator: Adobe Illustrator 26.0.1, SVG Export Plug-In . SVG Version: 6.00 Build 0)  -->
<svg version="1.1" id="Capa_1" xmlns="http://www.w3.org/2000/svg" xmlns:xlink="http://www.w3.org/1999/xlink" x="0px" y="0px"
	 viewBox="0 0 606.8 68.6" style="enable-background:new 0 0 606.8 68.6;" xml:space="preserve">
<style type="text/css">
	.st0{fill-rule:evenodd;clip-rule:evenodd;fill:#00616F;}
	.st1{fill-rule:evenodd;clip-rule:evenodd;fill:#00BCD7;}
	.st2{fill-rule:evenodd;clip-rule:evenodd;fill:#0094AB;}
	.st3{font-family:'BerlinSansFBDemi-Bold';}
	.st4{font-size:29px;}
	.st5{fill:#FFFFFF;}
</style>
<g transform="matrix(1.0, 0.0, 0.0, 1.0, -21.8, 2.3)">
	<path class="st0" d="M623.5-1c3.4,1.7,5.2,4.7,5.2,9.1v10.5c0,1.7-0.4,3.5-1.3,5.2c-1.7,3.5-4.7,5.2-9,5.2H32.2
		c-1.7,0-3.5-0.4-5.2-1.3c-3.4-1.7-5.2-4.8-5.2-9.1V8.1c0-1.7,0.4-3.5,1.3-5.2c1.7-3.4,4.8-5.1,9.1-5.1h586.1l1.7,0.1
		C621.2-2,622.4-1.6,623.5-1"/>
	<path class="st1" d="M599.4,42c-1.7,3.4-4.8,5.2-9.1,5.2H60.1c-1.7,0-3.5-0.4-5.1-1.2c-3.5-1.7-5.2-4.8-5.2-9V13.1
		c0-1.7,0.4-3.5,1.3-5.2c1.7-3.4,4.8-5.1,9-5.1h530.2L592,3c1.3,0.2,2.4,0.6,3.5,1.1c3.5,1.7,5.2,4.7,5.2,9v23.8
		C600.7,38.6,600.3,40.3,599.4,42"/>
	<path class="st2" d="M569.1,7.9c9,0,13.6,3.3,13.6,9.9v38.5c0,6.6-4.5,10-13.6,10H79.4c-9,0-13.5-3.3-13.5-10V17.9
		c0-6.6,4.5-9.9,13.5-9.9H569.1"/>
</g>
<text transform="matrix(1 0 0 1 73.0444 49)" class="st3 st4">Proceso del Yogurt y la Tuberculosis</text>
<text transform="matrix(1 0 0 1 76.0444 49)" class="st5 st3 st4">Proceso del Yogurt y la Tuberculosis</text>
</svg>
